<svg width="24px" height="29px" viewBox="0 0 26 31" version="1.1" xmlns="http://www.w3.org/2000/svg" xmlns:xlink="http://www.w3.org/1999/xlink">
    <!-- Generator: Sketch 50 (54983) - http://www.bohemiancoding.com/sketch -->
    <desc>Created with Sketch.</desc>
    <defs/>
    <g id="Page-1" stroke="none" stroke-width="1" fill="none" fill-rule="evenodd">
        <g id="1-Craft/1360" transform="translate(-1118.000000, -47.000000)" stroke="#7658e0">
            <g id="Group" transform="translate(1119.000000, 48.000000)">
                <g id="Icon-call">
                    <path d="M7.0664,11.8843 C7.0664,11.8843 5.1614,6.8063 9.3144,4.4113 C13.0974,2.2313 17.7154,5.5513 17.2744,10.1363 C16.9564,13.4463 14.8174,16.3023 11.4864,17.7693" id="Stroke-1" stroke-width="2.023" stroke-linecap="round" stroke-linejoin="round"/>
                    <path d="M11.7188,12.626 C9.1838,16.063 5.5698,15.314 4.5248,12.653 C4.2338,12.74 3.9268,12.787 3.6078,12.787 C1.8558,12.787 0.4348,11.367 0.4348,9.615 C0.4348,7.861 1.8558,6.441 3.6078,6.441 L3.7068,6.443 C4.6318,2.742 7.9798,0 11.9668,0 C15.9548,0 19.3018,2.742 20.2278,6.443 L20.3248,6.441 C22.0778,6.441 23.4988,7.861 23.4988,9.615 C23.4988,11.367 22.0778,12.787 20.3248,12.787 C20.0068,12.787 19.6988,12.74 19.4088,12.653" id="Stroke-3" stroke-width="2.023" stroke-linecap="round" stroke-linejoin="round"/>
                    <path d="M0,28.2871 L11.964,28.2871 L23.928,28.2871 C23.654,21.1731 23.863,18.9391 17.88,17.3061 C17.082,19.5111 14.735,21.1101 11.964,21.1101 C9.193,21.1101 6.847,19.5111 6.049,17.3061 C1.264,18.6111 0.438,20.3031 0.16,24.5631" id="Stroke-5" stroke-width="2.023" stroke-linecap="round" stroke-linejoin="round"/>
                    <path d="M11.7168,11.8242 C12.1608,11.8242 12.5208,12.1842 12.5208,12.6282 C12.5208,13.0722 12.1608,13.4312 11.7168,13.4312 C11.2728,13.4312 10.9128,13.0722 10.9128,12.6282 C10.9128,12.1842 11.2728,11.8242 11.7168,11.8242 Z" id="Stroke-7" stroke-width="2.028"/>
                </g>
            </g>
        </g>
    </g>
</svg>