<svg width="30" height="32" viewBox="0 0 30 32" fill="none" xmlns="http://www.w3.org/2000/svg">
<path d="M16.75 5.43301C15.6671 4.8078 14.3329 4.8078 13.25 5.43301L6.72372 9.20096C5.64082 9.82618 4.97372 10.9816 4.97372 12.2321V19.7679C4.97372 21.0184 5.64082 22.1738 6.72372 22.799L13.25 26.567C14.3329 27.1922 15.6671 27.1922 16.75 26.567L23.2763 22.799C24.3592 22.1738 25.0263 21.0184 25.0263 19.7679V12.2321C25.0263 10.9816 24.3592 9.82618 23.2763 9.20096L16.75 5.43301Z" fill="#C4C4C4" stroke="#DDDFE0"/>
<mask id="mask0" mask-type="alpha" maskUnits="userSpaceOnUse" x="5" y="5" width="20" height="22">
<path d="M13.75 6.29904C14.5235 5.85246 15.4765 5.85246 16.25 6.29904L22.7763 10.067C23.5498 10.5136 24.0263 11.3389 24.0263 12.2321V19.7679C24.0263 20.6611 23.5498 21.4864 22.7763 21.933L16.25 25.701C15.4765 26.1475 14.5235 26.1475 13.75 25.701L7.22372 21.933C6.45022 21.4864 5.97372 20.6611 5.97372 19.7679V12.2321C5.97372 11.3389 6.45022 10.5136 7.22372 10.067L13.75 6.29904Z" fill="#C4C4C4" stroke="black"/>
</mask>
<g mask="url(#mask0)">
<rect x="5" y="20" width="20" height="7" fill="#FD4B59"/>
<rect x="5" y="12" width="20" height="8" fill="#2771BC"/>
<rect x="5" y="5" width="20" height="7" fill="white"/>
</g>
</svg>