<svg width="127px" height="40px" viewBox="0 0 127 40" version="1.1" xmlns="http://www.w3.org/2000/svg" xmlns:xlink="http://www.w3.org/1999/xlink">
    <defs></defs>
    <g id="Login" stroke="none" stroke-width="1" fill="none" fill-rule="evenodd">
        <g id="01-Login/8/768" transform="translate(-40.000000, -32.000000)" fill="#151616">
            <g id="Page-1" transform="translate(40.000000, 32.000000)">
                <path d="M2.45924557,36.9075624 C1.71293824,36.9075624 1.26143006,36.3660629 1.24281117,35.3932257 C1.48640837,35.0161931 1.98136063,34.7105329 2.50424123,34.7105329 C3.12487103,34.7105329 3.56706976,35.1154939 3.56706976,35.7547426 C3.56706976,36.4219196 3.10625214,36.9075624 2.45924557,36.9075624 M2.82696873,33.6554623 C2.10703816,33.6554623 1.51278513,33.9704319 1.15281985,34.4219401 C1.25212062,32.9541506 2.68577545,32.8641593 4.29786135,32.5755664 L4.29786135,31.3963698 C1.37934973,31.8835642 0,32.639181 0,35.0518793 C0,36.7725755 0.837850227,37.9781488 2.46855502,37.9781488 C3.79049649,37.9781488 4.81919038,37.0425494 4.81919038,35.6647513 C4.81919038,34.4390074 3.97358228,33.6554623 2.82696873,33.6554623" id="Fill-12"></path>
                <path d="M8.2124838,36.5378222 C8.00457282,36.8077962 7.61823077,36.9970883 7.19465093,36.9970883 C6.75400377,36.9970883 6.39248692,36.8264151 6.39248692,36.4121447 C6.39248692,36.0242511 6.75400377,35.8272011 7.2753328,35.8272011 C7.63684966,35.8272011 7.97043818,35.9249503 8.2124838,36.0878656 L8.2124838,36.5378222 Z M9.78888348,36.8807202 C9.60734927,36.8807202 9.47236229,36.77211 9.47236229,36.5378222 L9.47236229,35.0172792 C9.47236229,33.8815267 8.58175853,33.2515875 7.33118949,33.2515875 C6.49954556,33.2515875 5.98752597,33.4408795 5.6632469,33.6115527 L5.6632469,34.6743813 C6.01545431,34.4664703 6.57246956,34.2957971 7.02397774,34.2957971 C7.59961187,34.2957971 8.2124838,34.4121652 8.2124838,35.1429568 L8.2124838,35.2779437 C7.91613307,35.1243379 7.52823945,34.9986603 6.91536752,34.9986603 C6.03407321,34.9986603 5.14191787,35.4579264 5.14191787,36.4742077 C5.14191787,37.3942914 5.83547167,37.9792349 6.79899943,37.9792349 C7.54530677,37.9792349 8.0418106,37.6813326 8.34747078,37.366363 C8.51814397,37.7620145 8.9060376,37.9419971 9.36375207,37.9419971 C9.60734927,37.9419971 9.89594212,37.8706247 10.049548,37.7527051 L10.049548,36.8264151 C9.96886613,36.8714107 9.86956536,36.8807202 9.78888348,36.8807202 Z" id="Fill-14"></path>
                <polygon id="Fill-16" points="10.6883312 37.8620911 11.9575192 37.8620911 11.9575192 36.0963993 13.8038928 36.0963993 13.8038928 37.8620911 15.0730807 37.8620911 15.0730807 33.3594219 13.8038928 33.3594219 13.8038928 35.0351223 11.9575192 35.0351223 11.9575192 33.3594219 10.6883312 33.3594219"></polygon>
                <polygon id="Fill-18" points="16.0718292 37.8620911 17.3410172 37.8620911 17.3410172 35.9210714 19.1160184 37.8620911 20.7560326 37.8620911 18.4953886 35.3888813 20.4488209 33.3594219 18.8894885 33.3594219 17.3410172 35.0009877 17.3410172 33.3594219 16.0718292 33.3594219"></polygon>
                <path d="M24.9586273,36.7983316 C25.2751485,36.0303022 25.3558304,35.2157256 25.3558304,34.422871 L26.7615569,34.422871 L26.7615569,36.7983316 L24.9586273,36.7983316 Z M23.0858769,39.0046705 L24.3023113,39.0046705 L24.3023113,37.8627117 L27.5435504,37.8627117 L27.5435504,39.0046705 L28.7413659,39.0046705 L28.7413659,36.7983316 L28.004368,36.7983316 L28.004368,33.3584909 L24.2216294,33.3584909 L24.2045621,34.2335789 C24.1859432,35.5151795 23.9950996,36.2847604 23.6630626,36.7983316 L23.0858769,36.7983316 L23.0858769,39.0046705 Z" id="Fill-20"></path>
                <path d="M31.172528,34.4225607 L32.5596356,34.4225607 L32.5596356,37.8624014 L33.8288235,37.8624014 L33.8288235,33.3581806 L29.9467842,33.3581806 L29.9204074,34.6832252 C29.8940306,36.0036151 29.8133487,36.8166402 29.192719,36.8166402 C29.0825572,36.8166402 29.0096332,36.8073307 28.9305029,36.7825055 L28.9305029,37.8174057 C29.0654898,37.8872266 29.236163,37.896536 29.4068362,37.896536 C30.891693,37.896536 31.1089135,36.4101276 31.1539091,35.0525 L31.172528,34.4225607 Z" id="Fill-22"></path>
                <path d="M36.719562,35.4574609 C36.2959821,35.4574609 36.0430755,35.2573078 36.0430755,34.9035488 C36.0430755,34.5497898 36.2959821,34.3496367 36.719562,34.3496367 L37.656713,34.3496367 L37.656713,35.4574609 L36.719562,35.4574609 Z M34.4309896,37.8624014 L35.8537834,37.8624014 L36.8886836,36.375993 L37.656713,36.375993 L37.656713,37.8624014 L38.9259009,37.8624014 L38.9259009,33.3581806 L36.511651,33.3581806 C35.2595304,33.3581806 34.7475108,34.0439765 34.7475108,34.8228669 C34.7475108,35.4931471 35.0717899,35.9431037 35.6381146,36.1510147 L34.4309896,37.8624014 Z" id="Fill-24"></path>
                <polygon id="Fill-26" points="42.2288927 37.8620911 43.4980806 37.8620911 43.4980806 34.4222504 45.2917007 34.4222504 45.2917007 37.8620911 46.5608887 37.8620911 46.5608887 33.3594219 42.2288927 33.3594219"></polygon>
                <path d="M49.9459588,34.3589462 C50.6565799,34.3589462 51.1623932,34.9082035 51.1623932,35.6188247 C51.1623932,36.3232395 50.6565799,36.8709453 49.9459588,36.8709453 C49.4230782,36.8709453 49.0181172,36.5559757 48.8288251,36.2037682 L48.8288251,35.0354326 C49.0181172,34.6739158 49.4230782,34.3589462 49.9459588,34.3589462 M50.305924,33.251122 C49.5503073,33.251122 49.0801802,33.5847105 48.8288251,33.918299 L48.8288251,33.3581806 L47.5596372,33.3581806 L47.5596372,39.6622278 L48.8288251,39.6622278 L48.8288251,37.3115924 C49.0801802,37.6358715 49.5503073,37.9787695 50.305924,37.9787695 C51.5487352,37.9787695 52.4222717,36.9345598 52.4222717,35.6157215 C52.4222717,34.2953316 51.5487352,33.251122 50.305924,33.251122" id="Fill-28"></path>
                <path d="M54.0778016,35.1513353 C54.1321067,34.6377641 54.5106909,34.2514221 55.104944,34.2514221 C55.6898875,34.2514221 56.0327855,34.6827598 56.0498528,35.1513353 L54.0778016,35.1513353 Z M55.3113034,37.978304 C56.0048572,37.978304 56.6534153,37.7983213 57.02269,37.5190379 L57.02269,36.5012051 C56.6177291,36.7354928 56.1212252,36.8984081 55.5828289,36.8984081 C54.8179027,36.8984081 54.2143402,36.6020574 54.0778016,35.9612571 L57.3019734,35.9612571 L57.3019734,35.6292202 C57.3019734,34.3491712 56.5184283,33.2506565 55.1592491,33.2506565 C53.7349037,33.2506565 52.8179231,34.3041756 52.8179231,35.6106013 C52.8179231,37.0783908 53.9521241,37.978304 55.3113034,37.978304 Z" id="Fill-31"></path>
                <path d="M59.4628512,36.7983316 C59.7778209,36.0303022 59.8585027,35.2157256 59.8585027,34.422871 L61.2626776,34.422871 L61.2626776,36.7983316 L59.4628512,36.7983316 Z M57.5901008,39.0046705 L58.8049836,39.0046705 L58.8049836,37.8627117 L62.0477743,37.8627117 L62.0477743,39.0046705 L63.2455899,39.0046705 L63.2455899,36.7983316 L62.5054888,36.7983316 L62.5054888,33.3584909 L58.7227502,33.3584909 L58.7056829,34.2335789 C58.687064,35.5151795 58.4993235,36.2847604 58.165735,36.7983316 L57.5901008,36.7983316 L57.5901008,39.0046705 Z" id="Fill-33"></path>
                <polygon id="Fill-35" points="63.8736672 37.8620911 65.1428551 37.8620911 65.1428551 34.4222504 66.9364753 34.4222504 66.9364753 37.8620911 68.2056632 37.8620911 68.2056632 33.3594219 63.8736672 33.3594219"></polygon>
                <path d="M71.5907333,34.3589462 C72.302906,34.3589462 72.8056161,34.9082035 72.8056161,35.6188247 C72.8056161,36.3232395 72.302906,36.8709453 71.5907333,36.8709453 C71.0678527,36.8709453 70.6628917,36.5559757 70.4735996,36.2037682 L70.4735996,35.0354326 C70.6628917,34.6739158 71.0678527,34.3589462 71.5907333,34.3589462 M71.9506986,33.251122 C71.1935302,33.251122 70.7265063,33.5847105 70.4735996,33.918299 L70.4735996,33.3581806 L69.2044117,33.3581806 L69.2044117,39.6622278 L70.4735996,39.6622278 L70.4735996,37.3115924 C70.7265063,37.6358715 71.1935302,37.9787695 71.9506986,37.9787695 C73.1935097,37.9787695 74.0670462,36.9345598 74.0670462,35.6157215 C74.0670462,34.2953316 73.1935097,33.251122 71.9506986,33.251122" id="Fill-37"></path>
                <polygon id="Fill-40" points="74.7604448 37.8620911 75.9489509 37.8620911 77.983065 35.2088987 77.983065 37.8620911 79.2351856 37.8620911 79.2351856 33.3594219 78.045128 33.3594219 76.0125654 36.0110627 76.0125654 33.3594219 74.7604448 33.3594219"></polygon>
                <polygon id="Fill-42" points="80.2334687 37.8620911 81.5026566 37.8620911 81.5026566 36.0963993 83.3490303 36.0963993 83.3490303 37.8620911 84.6182182 37.8620911 84.6182182 33.3594219 83.3490303 33.3594219 83.3490303 35.0351223 81.5026566 35.0351223 81.5026566 33.3594219 80.2334687 33.3594219"></polygon>
                <polygon id="Fill-44" points="85.6185183 37.8620911 86.8070243 37.8620911 88.8426901 35.2088987 88.8426901 37.8620911 90.0948107 37.8620911 90.0948107 33.3594219 88.904753 33.3594219 86.8706389 36.0110627 86.8706389 33.3594219 85.6185183 33.3594219"></polygon>
                <polygon id="Fill-46" points="91.0929386 37.8620911 92.2892025 37.8620911 92.2892025 35.0816696 93.3970267 36.4811898 93.90284 36.4811898 95.018422 35.0816696 95.018422 37.8620911 96.2162375 37.8620911 96.2162375 33.3594219 94.9641169 33.3594219 93.6483818 35.0382255 92.3450592 33.3594219 91.0929386 33.3594219"></polygon>
                <path d="M99.9159669,36.5378222 C99.7096075,36.8077962 99.3217139,36.9970883 98.8996856,36.9970883 C98.4590385,36.9970883 98.0975216,36.8264151 98.0975216,36.4121447 C98.0975216,36.0242511 98.4590385,35.8272011 98.9788159,35.8272011 C99.3403328,35.8272011 99.6739213,35.9249503 99.9159669,36.0878656 L99.9159669,36.5378222 Z M101.492367,36.8807202 C101.312384,36.8807202 101.175845,36.77211 101.175845,36.5378222 L101.175845,35.0172792 C101.175845,33.8815267 100.285242,33.2515875 99.0346726,33.2515875 C98.2045803,33.2515875 97.6910091,33.4408795 97.36673,33.6115527 L97.36673,34.6743813 C97.7189374,34.4664703 98.2775043,34.2957971 98.7274609,34.2957971 C99.303095,34.2957971 99.9159669,34.4121652 99.9159669,35.1429568 L99.9159669,35.2779437 C99.6196162,35.1243379 99.2317226,34.9986603 98.6188506,34.9986603 C97.7375563,34.9986603 96.845401,35.4579264 96.845401,36.4742077 C96.845401,37.3942914 97.5405064,37.9792349 98.5040341,37.9792349 C99.2487899,37.9792349 99.7468453,37.6813326 100.052505,37.366363 C100.221627,37.7620145 100.609521,37.9419971 101.068787,37.9419971 C101.312384,37.9419971 101.600977,37.8706247 101.754583,37.7527051 L101.754583,36.8264151 C101.673901,36.8714107 101.573048,36.8807202 101.492367,36.8807202 Z" id="Fill-48"></path>
                <polygon id="Fill-50" points="103.310036 37.8620911 104.579224 37.8620911 104.579224 34.4222504 106.003569 34.4222504 106.003569 33.3594219 101.905861 33.3594219 101.905861 34.4222504 103.310036 34.4222504"></polygon>
                <path d="M107.470893,35.1513353 C107.523647,34.6377641 107.902231,34.2514221 108.496484,34.2514221 C109.082979,34.2514221 109.425877,34.6827598 109.442945,35.1513353 L107.470893,35.1513353 Z M108.704395,37.978304 C109.397949,37.978304 110.044956,37.7983213 110.41423,37.5190379 L110.41423,36.5012051 C110.010821,36.7354928 109.512765,36.8984081 108.974369,36.8984081 C108.209443,36.8984081 107.60588,36.6020574 107.470893,35.9612571 L110.695065,35.9612571 L110.695065,35.6292202 C110.695065,34.3491712 109.909969,33.2506565 108.550789,33.2506565 C107.127995,33.2506565 106.211015,34.3041756 106.211015,35.6106013 C106.211015,37.0783908 107.343664,37.978304 108.704395,37.978304 Z" id="Fill-52"></path>
                <path d="M113.22258,34.4225607 L114.611239,34.4225607 L114.611239,37.8624014 L115.880427,37.8624014 L115.880427,33.3581806 L111.998388,33.3581806 L111.970459,34.6832252 C111.944083,36.0036151 111.863401,36.8166402 111.242771,36.8166402 C111.134161,36.8166402 111.061237,36.8073307 110.980555,36.7825055 L110.980555,37.8174057 C111.117094,37.8872266 111.287767,37.896536 111.45844,37.896536 C112.943297,37.896536 113.160517,36.4101276 113.205513,35.0525 L113.22258,34.4225607 Z" id="Fill-54"></path>
                <path d="M117.842393,35.1513353 C117.895147,34.6377641 118.273731,34.2514221 118.867984,34.2514221 C119.454479,34.2514221 119.797377,34.6827598 119.814444,35.1513353 L117.842393,35.1513353 Z M119.077446,37.978304 C119.767897,37.978304 120.416455,37.7983213 120.78573,37.5190379 L120.78573,36.5012051 C120.382321,36.7354928 119.885817,36.8984081 119.34742,36.8984081 C118.580943,36.8984081 117.97738,36.6020574 117.842393,35.9612571 L121.066565,35.9612571 L121.066565,35.6292202 C121.066565,34.3491712 120.28302,33.2506565 118.922289,33.2506565 C117.499495,33.2506565 116.582515,34.3041756 116.582515,35.6106013 C116.582515,37.0783908 117.716716,37.978304 119.077446,37.978304 Z" id="Fill-56"></path>
                <path d="M124.028986,32.8725378 C124.928899,32.8725378 125.63952,32.3062131 125.64883,31.3333759 L124.685302,31.3333759 C124.675993,31.7290274 124.423086,31.9912435 124.019677,31.9912435 C123.605406,31.9912435 123.3525,31.7290274 123.3525,31.3333759 L122.398281,31.3333759 C122.407591,32.3062131 123.108902,32.8725378 124.028986,32.8725378 Z M121.79627,37.8624014 L122.983225,37.8624014 L125.018891,35.209209 L125.018891,37.8624014 L126.26946,37.8624014 L126.26946,33.3581806 L125.080954,33.3581806 L123.046839,36.0098214 L123.046839,33.3581806 L121.79627,33.3581806 L121.79627,37.8624014 Z" id="Fill-58"></path>
                <g id="Group">
                    <path d="M26.2343319,5.12744809 C24.1102264,5.17865005 22.6207149,6.32371203 22.0528386,8.20732346 C21.7006312,9.36945276 21.7239048,10.5222726 22.0730091,11.6844019 C22.5803739,13.3694118 23.7037139,14.4058636 25.413549,14.674286 C27.1466577,14.9489146 28.6346176,14.3717289 29.5826296,12.8480828 C30.6594223,11.1118709 30.6795928,9.2577394 29.8200205,7.42222677 C29.0861258,5.84893023 27.7734938,5.14606699 26.2343319,5.12744809 M26.1738205,19.2343634 C23.6680277,19.2483276 21.4135899,18.5097781 19.5439426,16.8325261 C17.467936,14.9737398 16.6487046,12.5532836 16.6704267,9.81165149 C16.687494,7.53549171 17.2895049,5.46569133 18.80229,3.71706688 C20.1583661,2.14997664 21.8821654,1.21592879 23.8976607,0.79390053 C26.4251755,0.260158903 28.8595959,0.559612781 31.1016211,1.84121331 C33.9254866,3.45795394 35.3188005,5.99012351 35.4925769,9.21584688 C35.6430796,12.0505735 34.9681447,14.6044651 32.870416,16.643234 C31.0100782,18.4523698 28.7277121,19.2064351 26.1738205,19.2343634" id="Fill-1"></path>
                    <path d="M88.7458718,11.5686544 C87.9328468,11.0116392 87.00966,10.7183916 86.0430291,10.5958172 C85.0391604,10.4685881 84.0492558,10.5353058 83.1974414,11.1931734 C82.4169995,11.7951843 82.1206487,12.7540574 82.4061384,13.7393072 C82.6280136,14.4995787 83.4006977,15.0922801 84.3145751,15.1807199 C85.1943178,15.2645049 86.0476838,15.1310695 86.8591572,14.7850684 C88.3191888,14.1659902 88.8886167,13.1853951 88.7458718,11.5686544 M88.8420694,8.21259882 C88.8420694,7.69282136 88.9041324,7.17769863 88.8296568,6.68429794 C88.6946699,5.8107615 88.0771432,5.32046396 87.2889434,5.0318711 C85.9344188,4.53536726 84.5333471,4.50743892 83.1183111,4.62535859 C81.8087823,4.7339688 80.544249,4.99928804 79.3247115,5.64163988 C79.0981816,4.38951926 78.8825128,3.19015218 78.6606376,1.97526935 C79.7343272,1.4430793 80.8126714,1.145177 81.918944,0.943472311 C84.2881983,0.518340899 86.6605557,0.451623196 89.0065363,1.04587623 C91.4828492,1.67271232 93.2206127,3.10171243 93.7000492,5.73473435 C93.8195204,6.38484406 93.8272783,7.06133054 93.8334846,7.72385285 C93.8490003,9.67418199 93.8396909,11.6229596 93.8412425,13.5717371 C93.8412425,13.8292985 93.8458972,14.0853083 93.8614129,14.3413181 C93.9498527,15.7082552 94.0708755,15.8416906 95.4688441,16.0496016 L95.4688441,18.8610546 C94.0879428,19.2101588 92.6729069,19.391693 91.2702835,18.7307223 C90.4820837,18.3614476 90.1190152,17.6756517 89.9452389,16.8641782 C89.9095527,16.7028144 89.9033464,16.5336928 89.8754181,16.2916472 C88.1826503,18.7229644 85.7590909,19.3203206 83.0950375,19.1698179 C80.1129113,19.0037994 77.8212358,17.0007168 77.4007591,14.6392204 C76.7134116,10.7975219 78.6544313,7.92710911 82.5256097,7.34682025 C84.9755458,6.98220024 85.6753059,7.13735769 88.8420694,8.21259882" id="Fill-4"></path>
                    <path d="M66.0693003,11.6504224 C65.1569745,11.7062791 64.2911959,11.7590326 63.3385292,11.8179925 L63.3385292,18.8109387 L58.2354007,18.8109387 L58.2354007,1.11057688 L63.2656052,1.11057688 L63.2656052,7.65356653 C64.4215282,7.6489118 65.4843567,7.75752202 66.5239116,7.40221146 C67.8536109,6.95070328 68.7814525,6.05699637 69.1569335,4.71953916 C69.4843157,3.54654884 69.6472311,2.32856286 69.8939314,1.06868437 L74.5765832,1.06868437 C74.6789871,4.71488443 73.9528503,7.93129836 70.4664624,9.93282946 C70.6030009,10.1888392 70.7116112,10.4107144 70.8388403,10.6232801 C72.269392,13.015808 73.7108047,15.4036811 75.13515,17.7993121 C75.3058232,18.087905 75.4035724,18.4245967 75.5711425,18.8264545 L70.1995916,18.8264545 C68.8388607,16.4649581 67.4533047,14.0553629 66.0693003,11.6504224" id="Fill-6"></path>
                    <path d="M49.2261833,1.08342433 L54.1989796,1.08342433 L54.1989796,18.8411944 L49.1780845,18.8411944 L49.1780845,13.146916 C48.2533461,13.3517239 47.407738,13.6077336 46.5419595,13.7225502 C44.2626965,14.0204525 42.0904923,13.7489269 40.231706,12.2345902 C38.7933965,11.0631515 38.0501923,9.4743392 37.6979849,7.70709585 C37.2650956,5.53023683 37.5319664,3.3238979 37.4574908,1.08807905 L42.6444043,1.08807905 C42.6444043,1.34564042 42.6413012,1.61406281 42.6444043,1.88403677 C42.6630232,3.3176916 42.6226823,4.75755273 42.7126736,6.18965599 C42.8290417,8.0872316 44.2083914,9.32693962 46.0997607,9.35331638 C47.2680963,9.3703837 48.0113005,9.15316327 49.2261833,8.41151067 L49.2261833,1.08342433 Z" id="Fill-8"></path>
                    <polygon id="Fill-10" points="10.2276688 18.7657879 5.2424599 18.7657879 5.2424599 5.61929721 0.00279283409 5.61929721 0.00279283409 1.10421543 15.4052728 1.10421543 15.4052728 5.56654367 10.2276688 5.56654367"></polygon>
                </g>
            </g>
        </g>
    </g>
</svg>